<svg width="30" height="27" viewBox="0 0 30 27" fill="none" xmlns="http://www.w3.org/2000/svg">
<path fill-rule="evenodd" clip-rule="evenodd" d="M14.5461 0.152907C14.8143 -0.0509691 15.1856 -0.0509691 15.4538 0.152907L26.1166 8.25769C26.1203 8.26044 26.1241 8.26322 26.1278 8.26604C26.1313 8.26871 26.1348 8.27142 26.1382 8.27415L29.6858 10.9706C30.0155 11.2213 30.0797 11.6918 29.829 12.0216C29.5784 12.3513 29.1078 12.4155 28.7781 12.1648L26.424 10.3755V25.9913C26.424 26.4056 26.0883 26.7413 25.674 26.7413H18.5677C18.5645 26.7414 18.5613 26.7414 18.558 26.7414C18.5548 26.7414 18.5516 26.7414 18.5484 26.7413H11.4517C11.4485 26.7414 11.4453 26.7414 11.4421 26.7414C11.4388 26.7414 11.4356 26.7414 11.4324 26.7413H4.3261C3.91188 26.7413 3.5761 26.4056 3.5761 25.9913V10.3753L1.22184 12.1648C0.89207 12.4155 0.421547 12.3513 0.170892 12.0216C-0.0797626 11.6918 -0.0156308 11.2213 0.314134 10.9706L14.5461 0.152907ZM12.1921 25.2413H17.808V14.1207H12.1921V25.2413ZM19.308 25.2413V13.3707C19.308 12.9565 18.9723 12.6207 18.558 12.6207H11.4421C11.0279 12.6207 10.6921 12.9565 10.6921 13.3707V25.2413H5.0761V9.23519L15 1.69206L24.924 9.23537V25.2413H19.308Z" fill="#883AD4"/>
</svg>
