<svg width="35" height="35" viewBox="0 0 35 35" fill="none" xmlns="http://www.w3.org/2000/svg">
<path d="M32.8125 17.5C32.8125 25.9219 25.9219 32.8125 17.5 32.8125C9.07813 32.8125 2.1875 25.9219 2.1875 17.5C2.1875 9.40625 8.42188 2.73438 16.5156 2.1875V6.23437C10.2813 6.78125 5.6875 12.25 6.23437 18.4844C6.78125 24.7187 12.25 29.3125 18.4844 28.7656C24.2812 28.2187 28.7656 23.4063 28.7656 17.5H26.5781C26.5781 22.5312 22.5312 26.5781 17.5 26.5781C12.4688 26.5781 8.42187 22.5312 8.42187 17.5C8.42187 12.9063 11.8125 8.96875 16.4062 8.42187V13.2344C14.4375 13.6719 13.0156 15.4219 13.0156 17.5C13.0156 19.9063 14.9844 21.875 17.3906 21.875C19.7969 21.875 21.7656 19.9063 21.7656 17.5C21.7656 15.5313 20.3437 13.7812 18.4844 13.3437V0.109375C18.1562 -1.05938e-07 17.8281 0 17.5 0C7.875 0 0 7.875 0 17.5C0 27.125 7.875 35 17.5 35C27.125 35 35 27.125 35 17.5H32.8125ZM19.6875 17.5C19.6875 18.7031 18.7031 19.6875 17.5 19.6875C16.2969 19.6875 15.3125 18.7031 15.3125 17.5C15.3125 16.2969 16.2969 15.3125 17.5 15.3125C18.7031 15.3125 19.6875 16.2969 19.6875 17.5Z" fill="#334155"/>
<circle cx="9" cy="12" r="2" fill="#334155"/>
<circle cx="23" cy="26" r="2" fill="#334155"/>
<circle cx="3" cy="25" r="2" fill="#334155"/>
</svg>
