<svg width="22" height="22" viewBox="0 0 22 22" fill="none" xmlns="http://www.w3.org/2000/svg">
<path fill-rule="evenodd" clip-rule="evenodd" d="M11.5833 0.75C11.5833 0.335786 11.2475 0 10.8333 0C10.4191 0 10.0833 0.335786 10.0833 0.75V10.5278C10.0833 10.942 10.4191 11.2778 10.8333 11.2778C11.2475 11.2778 11.5833 10.942 11.5833 10.5278V0.75ZM4.23633 3.93423C4.5302 3.64232 4.53179 3.16744 4.23988 2.87357C3.94796 2.5797 3.47309 2.57811 3.17922 2.87003C1.2085 4.82761 0 7.54739 0 10.5277C0 13.5114 1.2231 16.2161 3.17567 18.1818C5.13326 20.1525 7.85306 21.361 10.8333 21.361C13.817 21.361 16.5218 20.1379 18.4874 18.1853C20.4582 16.2277 21.6667 13.5079 21.6667 10.5277C21.6667 7.54534 20.4445 4.82709 18.4892 2.8718C18.1963 2.5789 17.7215 2.5789 17.4286 2.8718C17.1357 3.16469 17.1357 3.63956 17.4286 3.93246C19.1155 5.61938 20.1667 7.9611 20.1667 10.5277C20.1667 13.0963 19.1263 15.4365 17.4303 17.1211C15.7294 18.8108 13.3985 19.861 10.8333 19.861C8.26472 19.861 5.92452 18.8206 4.23988 17.1247C2.55023 15.4237 1.5 13.0929 1.5 10.5277C1.5 7.95905 2.54038 5.61887 4.23633 3.93423Z" fill="#334155"/>
</svg>
