<svg width="20" height="20" viewBox="0 0 20 20" fill="none" xmlns="http://www.w3.org/2000/svg">
<path fill-rule="evenodd" clip-rule="evenodd" d="M1.5 8.2413C1.5 4.51358 4.50105 1.5 8.1928 1.5C11.8846 1.5 14.8856 4.51359 14.8856 8.2413C14.8856 11.969 11.8846 14.9826 8.1928 14.9826C4.50105 14.9826 1.5 11.969 1.5 8.2413ZM8.1928 0C3.66345 0 0 3.69436 0 8.2413C0 12.7882 3.66345 16.4826 8.1928 16.4826C10.2176 16.4826 12.0694 15.7443 13.4982 14.5215L17.9311 18.9833C18.2231 19.2771 18.6979 19.2787 18.9918 18.9867C19.2856 18.6948 19.2872 18.2199 18.9952 17.9261L14.5448 13.4467C15.6958 12.0269 16.3856 10.2144 16.3856 8.2413C16.3856 3.69435 12.7222 0 8.1928 0Z" fill="#334155"/>
</svg>
