<svg width="22" height="22" viewBox="0 0 22 22" fill="none" xmlns="http://www.w3.org/2000/svg">
<path fill-rule="evenodd" clip-rule="evenodd" d="M1.4939 9.42393C1.4939 5.04239 5.02154 1.49878 9.36289 1.49878C13.7042 1.49878 17.2319 5.0424 17.2319 9.42393C17.2319 13.8055 13.7042 17.3491 9.36289 17.3491C5.02154 17.3491 1.4939 13.8055 1.4939 9.42393ZM9.36289 -0.0012207C4.18394 -0.0012207 -0.00610352 4.22317 -0.00610352 9.42393C-0.00610352 14.6247 4.18394 18.8491 9.36289 18.8491C11.7176 18.8491 13.8678 17.9758 15.5128 16.5346L20.7242 21.78C21.0162 22.0738 21.491 22.0753 21.7849 21.7834C22.0787 21.4915 22.0803 21.0166 21.7883 20.7227L16.5591 15.4595C17.916 13.8239 18.7319 11.719 18.7319 9.42393C18.7319 4.22316 14.5418 -0.0012207 9.36289 -0.0012207Z" fill="#334155"/>
</svg>
