<svg width="28" height="28" viewBox="0 0 28 28" fill="none" xmlns="http://www.w3.org/2000/svg">
<path fill-rule="evenodd" clip-rule="evenodd" d="M13.9995 0.00149536C14.4137 0.00149536 14.7495 0.337282 14.7495 0.751495V2.90056C14.7495 3.31477 14.4137 3.65056 13.9995 3.65056C13.5853 3.65056 13.2495 3.31477 13.2495 2.90056V0.751495C13.2495 0.337282 13.5853 0.00149536 13.9995 0.00149536ZM14.0003 7.58846C10.4593 7.58846 7.58887 10.4589 7.58887 13.9996C7.58887 17.5404 10.4593 20.4108 14.0003 20.4108C17.5412 20.4108 20.4116 17.5404 20.4116 13.9996C20.4116 10.4589 17.5412 7.58846 14.0003 7.58846ZM6.08887 13.9996C6.08887 9.63038 9.63094 6.08846 14.0003 6.08846C18.3696 6.08846 21.9116 9.63038 21.9116 13.9996C21.9116 18.3689 18.3696 21.9108 14.0003 21.9108C9.63094 21.9108 6.08887 18.3689 6.08887 13.9996ZM14.7495 25.0994C14.7495 24.6852 14.4137 24.3494 13.9995 24.3494C13.5853 24.3494 13.2495 24.6852 13.2495 25.0994V27.2485C13.2495 27.6627 13.5853 27.9985 13.9995 27.9985C14.4137 27.9985 14.7495 27.6627 14.7495 27.2485V25.0994ZM24.3501 13.9996C24.3501 13.5854 24.6859 13.2496 25.1001 13.2496H27.2485C27.6627 13.2496 27.9985 13.5854 27.9985 13.9996C27.9985 14.4138 27.6627 14.7496 27.2485 14.7496H25.1001C24.6859 14.7496 24.3501 14.4138 24.3501 13.9996ZM0.751465 13.2496C0.337251 13.2496 0.00146484 13.5854 0.00146484 13.9996C0.00146484 14.4138 0.337251 14.7496 0.751465 14.7496H2.89988C3.31409 14.7496 3.64988 14.4138 3.64988 13.9996C3.64988 13.5854 3.31409 13.2496 2.89988 13.2496H0.751465ZM4.07351 4.07371C4.36645 3.78086 4.84132 3.78093 5.13417 4.07387L6.65238 5.59254C6.94523 5.88548 6.94516 6.36035 6.65222 6.6532C6.35929 6.94605 5.88441 6.94598 5.59156 6.65304L4.07335 5.13437C3.7805 4.84143 3.78057 4.36656 4.07351 4.07371ZM22.4074 21.3467C22.1145 21.0537 21.6396 21.0537 21.3467 21.3465C21.0538 21.6394 21.0537 22.1142 21.3465 22.4072L22.8648 23.9258C23.1576 24.2188 23.6325 24.2188 23.9254 23.926C24.2184 23.6331 24.2184 23.1583 23.9256 22.8653L22.4074 21.3467ZM23.9254 4.07371C24.2184 4.36656 24.2184 4.84143 23.9256 5.13437L22.4074 6.65304C22.1145 6.94598 21.6396 6.94605 21.3467 6.6532C21.0538 6.36035 21.0537 5.88548 21.3465 5.59254L22.8648 4.07387C23.1576 3.78093 23.6325 3.78086 23.9254 4.07371ZM6.65238 22.4072C6.94523 22.1142 6.94516 21.6394 6.65222 21.3465C6.35929 21.0537 5.88441 21.0537 5.59156 21.3467L4.07335 22.8653C3.7805 23.1583 3.78057 23.6331 4.07351 23.926C4.36645 24.2188 4.84132 24.2188 5.13417 23.9258L6.65238 22.4072Z" fill="#334155"/>
</svg>
