<svg width="17" height="17" viewBox="0 0 17 17" fill="none" xmlns="http://www.w3.org/2000/svg">
<path fill-rule="evenodd" clip-rule="evenodd" d="M0.75 0C1.16421 0 1.5 0.335786 1.5 0.75V3.65923L2.69968 2.45955C5.97257 -0.81334 11.2674 -0.81334 14.5403 2.45955C17.8132 5.73245 17.8132 11.0273 14.5403 14.3002C11.2674 17.5731 5.97257 17.5731 2.69968 14.3002C2.40679 14.0073 2.40679 13.5325 2.69968 13.2396C2.99257 12.9467 3.46745 12.9467 3.76034 13.2396C6.44745 15.9267 10.7926 15.9267 13.4797 13.2396C16.1668 10.5525 16.1668 6.20732 13.4797 3.52021C10.7926 0.833106 6.44745 0.833106 3.76034 3.52021L2.53055 4.75H5.5C5.91421 4.75 6.25 5.08579 6.25 5.5C6.25 5.91421 5.91421 6.25 5.5 6.25H0.75C0.335786 6.25 0 5.91421 0 5.5V0.75C0 0.335786 0.335786 0 0.75 0ZM9.25 4C9.25 3.58579 8.91421 3.25 8.5 3.25C8.08579 3.25 7.75 3.58579 7.75 4V8C7.75 8.19891 7.82902 8.38968 7.96967 8.53033L10.4697 11.0303C10.7626 11.3232 11.2374 11.3232 11.5303 11.0303C11.8232 10.7374 11.8232 10.2626 11.5303 9.96967L9.25 7.68934V4Z" fill="currentColor"/>
</svg>
