<svg width="26" height="26" viewBox="0 0 26 26" fill="none" xmlns="http://www.w3.org/2000/svg">
<path fill-rule="evenodd" clip-rule="evenodd" d="M1.5 3.12473C1.5 2.22742 2.22742 1.5 3.12473 1.5H7.87419C8.7715 1.5 9.49892 2.22742 9.49892 3.12473V7.87419C9.49892 8.7715 8.7715 9.49892 7.87419 9.49892H3.12473C2.22742 9.49892 1.5 8.7715 1.5 7.87419V3.12473ZM3.12473 0C1.39899 0 0 1.39899 0 3.12473V7.87419C0 9.59993 1.39899 10.9989 3.12473 10.9989H7.87419C9.59993 10.9989 10.9989 9.59993 10.9989 7.87419V3.12473C10.9989 1.39899 9.59993 0 7.87419 0H3.12473ZM1.5 17.3731C1.5 16.4758 2.22742 15.7484 3.12473 15.7484H7.87419C8.7715 15.7484 9.49892 16.4758 9.49892 17.3731V22.1226C9.49892 23.0199 8.7715 23.7473 7.87419 23.7473H3.12473C2.22742 23.7473 1.5 23.0199 1.5 22.1226V17.3731ZM3.12473 14.2484C1.39899 14.2484 0 15.6474 0 17.3731V22.1226C0 23.8483 1.39899 25.2473 3.12473 25.2473H7.87419C9.59993 25.2473 10.9989 23.8483 10.9989 22.1226V17.3731C10.9989 15.6474 9.59993 14.2484 7.87419 14.2484H3.12473ZM17.3731 1.5C16.4758 1.5 15.7484 2.22742 15.7484 3.12473V7.87419C15.7484 8.7715 16.4758 9.49892 17.3731 9.49892H22.1226C23.0199 9.49892 23.7473 8.7715 23.7473 7.87419V3.12473C23.7473 2.22742 23.0199 1.5 22.1226 1.5H17.3731ZM14.2484 3.12473C14.2484 1.39899 15.6474 0 17.3731 0H22.1226C23.8483 0 25.2473 1.39899 25.2473 3.12473V7.87419C25.2473 9.59993 23.8483 10.9989 22.1226 10.9989H17.3731C15.6474 10.9989 14.2484 9.59993 14.2484 7.87419V3.12473ZM15.7484 17.3731C15.7484 16.4758 16.4758 15.7484 17.3731 15.7484H22.1226C23.0199 15.7484 23.7473 16.4758 23.7473 17.3731V22.1226C23.7473 23.0199 23.0199 23.7473 22.1226 23.7473H17.3731C16.4758 23.7473 15.7484 23.0199 15.7484 22.1226V17.3731ZM17.3731 14.2484C15.6474 14.2484 14.2484 15.6474 14.2484 17.3731V22.1226C14.2484 23.8483 15.6474 25.2473 17.3731 25.2473H22.1226C23.8483 25.2473 25.2473 23.8483 25.2473 22.1226V17.3731C25.2473 15.6474 23.8483 14.2484 22.1226 14.2484H17.3731Z" fill="currentColor"/>
</svg>
