<svg width="15" height="14" viewBox="0 0 15 14" fill="none" xmlns="http://www.w3.org/2000/svg">
<path fill-rule="evenodd" clip-rule="evenodd" d="M2.2015 1.00357C1.9086 0.710681 1.43373 0.710681 1.14084 1.00357C0.847942 1.29647 0.847942 1.77134 1.14084 2.06423L6.42121 7.3446L1.14084 12.625C0.847942 12.9179 0.847942 13.3927 1.14084 13.6856C1.43373 13.9785 1.9086 13.9785 2.2015 13.6856L7.48187 8.40526L12.7623 13.6857C13.0551 13.9785 13.53 13.9785 13.8229 13.6857C14.1158 13.3928 14.1158 12.9179 13.8229 12.625L8.54253 7.3446L13.8229 2.06422C14.1158 1.77132 14.1158 1.29645 13.8229 1.00356C13.53 0.710664 13.0551 0.710664 12.7623 1.00356L7.48187 6.28394L2.2015 1.00357Z" fill="currentColor"/>
</svg>
